<svg width="94" height="28" viewBox="0 0 94 28" fill="none" xmlns="http://www.w3.org/2000/svg">
<path d="M61.1283 19.2283C58.8502 19.2283 57.3514 17.9693 57.1915 15.8911H58.4505C58.5904 17.3099 59.5296 18.0692 61.1283 18.0692C62.5271 18.0692 63.4463 17.2699 63.4463 16.3507C63.4463 13.0534 57.4313 15.971 57.4313 11.5946C57.4313 9.91602 58.8302 8.83691 60.9884 8.83691C63.1266 8.83691 64.5854 10.0359 64.7053 11.8544H63.4463C63.2865 10.4356 61.8676 9.99595 60.9084 9.99595C59.6095 9.99595 58.7502 10.6354 58.7502 11.5946C58.7502 14.5122 64.7652 11.7145 64.7652 16.3507C64.7652 18.1092 63.3064 19.2283 61.1283 19.2283Z" fill="#222428"/>
<path d="M49.9682 19.2283C46.7709 19.2283 45.0723 16.9102 45.0723 14.0326C45.0723 11.155 46.7709 8.83691 49.9682 8.83691C51.3471 8.83691 52.8058 9.5763 53.4653 10.6154V8.99678H54.7242V19.0684H53.4653V17.4498C53.0257 18.4289 51.5669 19.2283 49.9682 19.2283ZM46.4112 14.0326C46.4112 16.4706 47.83 18.0692 50.0082 18.0692C52.1864 18.0692 53.6052 16.4706 53.6052 14.0326C53.6052 11.5946 52.1864 9.99595 50.0082 9.99595C47.83 9.99595 46.4112 11.5946 46.4112 14.0326Z" fill="#222428"/>
<path d="M38.7309 19.0682L35.0339 8.99658H36.3528L39.4303 17.5095L42.5077 8.99658H43.8466L40.1497 19.0682H38.7309Z" fill="#222428"/>
<path d="M24.8359 19.0684V8.99678H26.0949V11.095C26.6145 9.5763 27.8934 8.83691 29.4921 8.83691C31.7702 8.83691 33.2489 10.4556 33.2489 12.9535V19.0684H31.99V13.1134C31.99 11.2349 30.9309 9.99595 29.3122 9.99595C27.4338 9.99595 26.0949 11.5147 26.0949 13.6529V19.0684H24.8359Z" fill="#222428"/>
<path d="M16.7956 19.2283C13.5982 19.2283 11.8997 16.9102 11.8997 14.0326C11.8997 11.155 13.5982 8.83691 16.7956 8.83691C18.1744 8.83691 19.6332 9.5763 20.2927 10.6154V8.99678H21.5516V19.0684H20.2927V17.4498C19.8531 18.4289 18.3943 19.2283 16.7956 19.2283ZM13.2385 14.0326C13.2385 16.4706 14.6574 18.0692 16.8356 18.0692C19.0137 18.0692 20.4326 16.4706 20.4326 14.0326C20.4326 11.5946 19.0137 9.99595 16.8356 9.99595C14.6574 9.99595 13.2385 11.5946 13.2385 14.0326Z" fill="#222428"/>
<path d="M5.74764 19.2283C2.5503 19.2283 0.931641 16.6704 0.931641 14.0326C0.931641 11.3948 2.5503 8.83691 5.74764 8.83691C7.88586 8.83691 9.8842 10.0759 10.2239 12.294H8.98495C8.78512 10.9751 7.40626 9.99595 5.74764 9.99595C3.34963 9.99595 2.25054 11.8544 2.25054 14.0326C2.25054 16.2108 3.36962 18.0692 5.74764 18.0692C7.40626 18.0692 8.58528 17.2699 8.98495 15.951H10.184C9.82425 17.9693 8.28553 19.2283 5.74764 19.2283Z" fill="#222428"/>
<path fill-rule="evenodd" clip-rule="evenodd" d="M74.6625 8.91797C72.598 8.91797 71.279 10.2369 71.3507 12.2871H72.6123C72.555 10.9108 73.3722 9.99322 74.6625 9.99322C75.8094 9.99322 76.6553 10.7387 76.6553 11.8857C76.6553 12.7602 76.2682 13.4484 75.1929 13.9932L73.6589 14.7817C72.6267 15.2978 71.2217 16.4017 71.2217 18.1938V19.0683H77.9743V17.9644H72.4116C72.4116 16.9895 73.3292 16.2297 74.1464 15.8139L75.58 15.0827C77.1141 14.3229 77.9169 13.219 77.9169 11.9143C77.9169 10.0936 76.5549 8.91797 74.6625 8.91797ZM83.6362 16.5598V19.0687H84.8692V16.5598H86.4319V15.4559H84.8692V9.03308H83.4355L78.26 15.4559V16.5598H83.6362ZM83.6506 15.4559H79.5646L83.6506 10.3807V15.4559Z" fill="#222428"/>
<path fill-rule="evenodd" clip-rule="evenodd" d="M70.5099 3.84073C70.2721 3.34348 69.7644 3 69.1764 3C68.3606 3 67.6992 3.66137 67.6992 4.4772C67.6992 5.10547 68.0914 5.64213 68.6444 5.85569V22.0019C68.0914 22.2155 67.6992 22.7521 67.6992 23.3804C67.6992 24.1963 68.3606 24.8576 69.1764 24.8576C69.8377 24.8576 70.3974 24.4232 70.5858 23.8241H84.8498C86.3533 23.8241 87.5959 24.9412 87.793 26.3906C87.8232 26.6123 88.0016 26.7946 88.2253 26.7946C88.4491 26.7946 88.6275 26.6123 88.6577 26.3906C88.8368 25.0733 89.8796 24.0305 91.1969 23.8514C91.4186 23.8212 91.6009 23.6428 91.6009 23.4191C91.6009 23.1953 91.4186 23.0169 91.1969 22.9867C89.7474 22.7896 88.6304 21.547 88.6304 20.0435C88.6304 20.0278 88.6295 20.0123 88.6278 19.997V5.84936C89.1722 5.63168 89.5568 5.09936 89.5568 4.4772C89.5568 3.66137 88.8955 3 88.0796 3C87.4917 3 86.984 3.34348 86.7462 3.84073H70.5099ZM69.6745 23.8241C69.7796 23.7062 69.8435 23.5508 69.8435 23.3804C69.8435 23.2451 69.8032 23.1192 69.7339 23.014C69.6654 22.91 69.5686 22.8263 69.4545 22.7739C69.3699 22.735 69.2757 22.7134 69.1764 22.7134C68.9592 22.7134 68.7662 22.8172 68.6444 22.978C68.5596 23.0898 68.5094 23.2293 68.5094 23.3804C68.5094 23.5316 68.5596 23.671 68.6444 23.7829C68.6551 23.7971 68.6665 23.8108 68.6783 23.8241C68.8005 23.9612 68.9784 24.0475 69.1764 24.0475C69.3745 24.0475 69.5523 23.9612 69.6745 23.8241ZM69.4545 21.9293C70.0176 22.0366 70.4673 22.4635 70.6078 23.014H84.8471C86.4877 23.014 87.8176 21.684 87.8176 20.0435V5.93124C87.1827 5.81759 86.6883 5.29818 86.6125 4.65087H70.6435C70.5684 5.2927 70.0817 5.80878 69.4545 5.92826V21.9293ZM87.8176 5.09085C87.6314 5.01124 87.4888 4.84934 87.4354 4.65087C87.4205 4.59549 87.4126 4.53728 87.4126 4.4772C87.4126 4.17858 87.6088 3.92578 87.8793 3.84073C87.9426 3.82085 88.0099 3.81014 88.0796 3.81014C88.1494 3.81014 88.2167 3.82085 88.2799 3.84073C88.4224 3.88553 88.5443 3.97688 88.6278 4.09695C88.7028 4.20482 88.7467 4.33588 88.7467 4.4772C88.7467 4.61852 88.7028 4.74958 88.6278 4.85745C88.5073 5.03079 88.3067 5.14426 88.0796 5.14426C87.9866 5.14426 87.8981 5.12523 87.8176 5.09085ZM69.4361 3.86256C69.6755 3.96382 69.8435 4.20089 69.8435 4.4772C69.8435 4.53727 69.8355 4.59549 69.8207 4.65087C69.7688 4.84358 69.6328 5.00181 69.4545 5.08371C69.4484 5.08651 69.4423 5.08922 69.4361 5.09184C69.3563 5.1256 69.2685 5.14426 69.1764 5.14426C68.9592 5.14426 68.7662 5.04041 68.6444 4.87964C68.5596 4.76778 68.5094 4.62836 68.5094 4.4772C68.5094 4.31602 68.5665 4.16819 68.6617 4.05289C68.7428 3.95456 68.8516 3.87988 68.9761 3.84073C69.0394 3.82085 69.1066 3.81014 69.1764 3.81014C69.2685 3.81014 69.3563 3.8288 69.4361 3.86256Z" fill="#222428"/>
<path d="M92.6168 21.8357C92.7085 21.8357 92.7816 21.7609 92.794 21.67C92.8675 21.1299 93.295 20.7024 93.8351 20.629C93.926 20.6166 94.0007 20.5434 94.0007 20.4517C94.0007 20.36 93.926 20.2868 93.8351 20.2745C93.295 20.201 92.8675 19.7735 92.794 19.2334C92.7816 19.1425 92.7085 19.0677 92.6168 19.0677C92.525 19.0677 92.4519 19.1425 92.4395 19.2334C92.3661 19.7735 91.9385 20.201 91.3984 20.2745C91.3075 20.2868 91.2328 20.36 91.2328 20.4517C91.2328 20.5434 91.3075 20.6166 91.3984 20.629C91.9385 20.7024 92.3661 21.1299 92.4395 21.67C92.4519 21.7609 92.525 21.8357 92.6168 21.8357Z" fill="#222428"/>
<path d="M92.7887 27.821C92.7764 27.9119 92.7032 27.9866 92.6115 27.9866C92.5198 27.9866 92.4466 27.9119 92.4342 27.821C92.3608 27.2809 91.9333 26.8533 91.3932 26.7799C91.3023 26.7675 91.2275 26.6944 91.2275 26.6026C91.2275 26.5109 91.3023 26.4378 91.3932 26.4254C91.9333 26.3519 92.3608 25.9244 92.4342 25.3843C92.4466 25.2934 92.5198 25.2187 92.6115 25.2187C92.7032 25.2187 92.7764 25.2934 92.7887 25.3843C92.8622 25.9244 93.2897 26.3519 93.8298 26.4254C93.9207 26.4378 93.9955 26.5109 93.9955 26.6026C93.9955 26.6944 93.9207 26.7675 93.8298 26.7799C93.2897 26.8533 92.8622 27.2809 92.7887 27.821Z" fill="#222428"/>
</svg>
